<svg width="1024" height="324" viewBox="0 0 1024 324" fill="none" xmlns="http://www.w3.org/2000/svg">
<path d="M432.47 312.875V313.107C432.569 313.024 432.685 312.974 432.784 312.875H432.47Z" fill="white"/>
<path fill-rule="evenodd" clip-rule="evenodd" d="M494.783 93.3613C497.46 93.2786 512.86 93.3447 519.545 104.667C524.368 112.845 522.788 123.522 514.889 136.367L514.739 136.599L482.759 185.133C480.996 187.798 478.086 189.239 475.109 189.239C473.38 189.239 471.65 188.759 470.104 187.749C465.896 185.001 464.715 179.373 467.476 175.168L499.373 126.75C504.395 118.572 504.279 114.699 503.796 113.888C502.932 112.431 498.042 111.421 495.315 111.537H494.933H135.503L183.747 253.466V253.499C183.77 253.566 183.795 253.641 183.823 253.725C184.662 256.269 187.999 266.389 211.303 265.151V285.327C176.37 285.305 167.399 262.304 166.269 258.763L91.7324 39.513C89.1547 32.7095 86.2278 30.177 84.7144 29.2665C83.9827 28.8527 83.4672 28.7037 83.2843 28.6706H72.7573C69.4978 35.3748 62.6128 39.9931 54.6469 39.9931H20.0894C8.99699 39.9931 0 31.0376 0 19.9965C0 8.95533 8.99699 0 20.0894 0H54.6469C62.2802 0 68.9323 4.25417 72.3249 10.4948H83.3674H83.4172C86.7599 10.4948 100.846 11.8191 108.895 33.3055L108.995 33.5704L129.317 93.3779C129.367 93.3779 129.421 93.3738 129.475 93.3696C129.529 93.3655 129.583 93.3613 129.633 93.3613H494.783Z" fill="#EB1B3B"/>
<path fill-rule="evenodd" clip-rule="evenodd" d="M480.597 207.132C489.046 215.045 493.336 225.772 493.336 238.998L493.353 261.924C493.353 263.927 492.97 271.31 486.834 277.501C481.046 283.344 472.134 285.755 460.742 285.391H455.752V265.159L455.91 265.162H459.032H464.165C470.054 265.162 471.391 265.134 472.292 264.783C474.932 263.754 474.906 261.325 474.9 260.764C474.899 260.741 474.899 260.721 474.899 260.705L474.883 257.58L475.043 238.981C475.043 230.837 472.748 224.745 468.042 220.325C458.23 211.105 440.934 211.85 440.768 211.867L440.236 211.883H300.559C295.52 211.883 291.428 207.811 291.428 202.795C291.428 197.78 295.52 193.708 300.559 193.708H396.914L349.801 150.354H290.713L245.662 198.475C236.15 210.096 219.752 211.635 217.89 211.768L217.54 211.8H188.255C183.216 211.8 179.125 207.728 179.125 202.713C179.125 197.697 183.216 193.625 188.255 193.625H216.775C219.869 193.31 227.868 191.572 231.593 186.888L232.075 186.341L278.69 136.565C281.284 133.801 284.959 132.212 288.768 132.212H351.514C355.023 132.212 358.382 133.519 360.96 135.886L423.822 193.741H440.036C443.163 193.625 465.747 193.194 480.597 207.132Z" fill="#EB1B3B"/>
<rect x="304.459" y="265.157" width="58.1637" height="20.1699" fill="#EB1B3B"/>
<path d="M304.472 264.458L297.021 262.849C296.375 260.871 295.567 258.94 294.63 257.09L298.751 250.704C299.494 249.562 299.333 248.066 298.363 247.101L286.759 235.551C285.79 234.586 284.287 234.425 283.139 235.165L276.724 239.267C274.865 238.318 272.926 237.53 270.938 236.886L269.322 229.471C269.031 228.152 267.851 227.202 266.494 227.202H250.074C248.717 227.202 247.537 228.152 247.246 229.471L245.63 236.886C243.642 237.53 241.703 238.334 239.845 239.267L233.429 235.165C232.281 234.425 230.778 234.586 229.809 235.551L218.205 247.101C217.236 248.066 217.074 249.562 217.817 250.704L221.938 257.09C220.985 258.94 220.193 260.871 219.547 262.849L212.096 264.458C210.771 264.748 209.818 265.922 209.818 267.273V283.616C209.818 284.968 210.771 286.142 212.096 286.431L219.547 288.04C220.193 290.019 221.001 291.949 221.938 293.799L217.817 300.185C217.074 301.327 217.236 302.823 218.205 303.788L229.809 315.338C230.778 316.304 232.281 316.464 233.429 315.724L239.845 311.622C241.703 312.572 243.642 313.36 245.63 314.003L247.246 321.419C247.537 322.738 248.717 323.687 250.074 323.687H266.494C267.851 323.687 269.031 322.738 269.322 321.419L270.938 314.003C272.926 313.36 274.865 312.555 276.724 311.622L283.139 315.724C284.287 316.464 285.79 316.304 286.759 315.338L298.363 303.788C299.333 302.823 299.494 301.327 298.751 300.185L294.63 293.799C295.583 291.949 296.375 290.019 297.021 288.04L304.472 286.431C305.797 286.142 306.75 284.968 306.75 283.616V267.273C306.75 265.922 305.797 264.748 304.472 264.458ZM275.657 275.445C275.657 284.984 267.851 292.753 258.268 292.753C248.685 292.753 240.879 284.984 240.879 275.445C240.879 265.906 248.685 258.136 258.268 258.136C267.851 258.136 275.657 265.906 275.657 275.445Z" fill="#211C1E"/>
<path d="M455.105 264.458L447.655 262.849C447.009 260.871 446.201 258.94 445.263 257.09L449.385 250.704C450.128 249.562 449.966 248.066 448.997 247.101L437.393 235.551C436.424 234.586 434.921 234.425 433.773 235.165L427.357 239.267C425.499 238.318 423.559 237.53 421.572 236.886L419.956 229.471C419.665 228.152 418.485 227.202 417.127 227.202H400.708C399.351 227.202 398.171 228.152 397.88 229.471L396.264 236.886C394.276 237.53 392.337 238.334 390.478 239.267L384.063 235.165C382.915 234.425 381.412 234.586 380.443 235.551L368.839 247.101C367.869 248.066 367.708 249.562 368.451 250.704L372.572 257.09C371.619 258.94 370.827 260.871 370.18 262.849L362.73 264.458C361.405 264.748 360.452 265.922 360.452 267.273V283.616C360.452 284.968 361.405 286.142 362.73 286.431L370.18 288.04C370.827 290.019 371.635 291.949 372.572 293.799L368.451 300.185C367.708 301.327 367.869 302.823 368.839 303.788L380.443 315.338C381.412 316.304 382.915 316.464 384.063 315.724L390.478 311.622C392.337 312.572 394.276 313.36 396.264 314.003L397.88 321.419C398.171 322.738 399.351 323.687 400.708 323.687H417.127C418.485 323.687 419.665 322.738 419.956 321.419L421.572 314.003C423.559 313.36 425.499 312.555 427.357 311.622L433.773 315.724C434.921 316.464 436.424 316.304 437.393 315.338L448.997 303.788C449.966 302.823 450.128 301.327 449.385 300.185L445.263 293.799C446.217 291.949 447.009 290.019 447.655 288.04L455.105 286.431C456.431 286.142 457.384 284.968 457.384 283.616V267.273C457.384 265.922 456.431 264.748 455.105 264.458ZM426.291 275.445C426.291 284.984 418.485 292.753 408.902 292.753C399.318 292.753 391.513 284.984 391.513 275.445C391.513 265.906 399.318 258.136 408.902 258.136C418.485 258.136 426.291 265.906 426.291 275.445Z" fill="#211C1E"/>
<path d="M705.26 220.878H678.134V123.755C678.134 121.858 677.754 120.087 676.996 118.443C676.3 116.799 675.32 115.377 674.055 114.175C672.854 112.911 671.431 111.931 669.787 111.235C668.143 110.539 666.373 110.192 664.476 110.192C662.579 110.192 660.808 110.539 659.164 111.235C657.52 111.931 656.066 112.911 654.801 114.175C653.6 115.377 652.652 116.799 651.956 118.443C651.26 120.087 650.913 121.858 650.913 123.755V220.878H623.691V123.755C623.691 121.858 623.344 120.087 622.648 118.443C621.953 116.799 620.973 115.377 619.708 114.175C618.506 112.911 617.084 111.931 615.44 111.235C613.796 110.539 612.025 110.192 610.128 110.192C608.231 110.192 606.461 110.539 604.817 111.235C603.173 111.931 601.719 112.911 600.454 114.175C599.252 115.377 598.304 116.799 597.608 118.443C596.913 120.087 596.565 121.858 596.565 123.755V220.878H569.344V123.755C569.344 118.127 570.387 112.847 572.474 107.915C574.624 102.92 577.532 98.5887 581.2 94.9213C584.931 91.1906 589.262 88.282 594.194 86.1953C599.189 84.0455 604.501 82.9705 610.128 82.9705C615.187 82.9705 620.056 83.8874 624.735 85.7211C629.414 87.4916 633.619 90.0841 637.349 93.4986C641.08 90.0841 645.253 87.4916 649.869 85.7211C654.548 83.8874 659.417 82.9705 664.476 82.9705C670.103 82.9705 675.383 84.0455 680.315 86.1953C685.311 88.282 689.642 91.1906 693.309 94.9213C697.04 98.5887 699.949 102.92 702.035 107.915C704.185 112.847 705.26 118.127 705.26 123.755V220.878Z" fill="#EB1B3B"/>
<path d="M766.152 196.028C767.164 196.345 768.175 196.566 769.187 196.692C770.199 196.756 771.211 196.787 772.222 196.787C774.752 196.787 777.186 196.439 779.526 195.744C781.865 195.048 784.047 194.068 786.07 192.804C788.157 191.476 789.99 189.895 791.571 188.061C793.215 186.164 794.543 184.078 795.555 181.801L814.524 200.866C812.121 204.28 809.339 207.347 806.178 210.066C803.079 212.785 799.696 215.093 796.029 216.99C792.425 218.887 788.599 220.309 784.552 221.258C780.569 222.27 776.459 222.775 772.222 222.775C765.077 222.775 758.343 221.448 752.02 218.792C745.76 216.136 740.259 212.437 735.516 207.695C730.837 202.952 727.138 197.325 724.419 190.812C721.7 184.236 720.341 177.027 720.341 169.187C720.341 161.156 721.7 153.821 724.419 147.182C727.138 140.543 730.837 134.884 735.516 130.204C740.259 125.525 745.76 121.89 752.02 119.297C758.343 116.705 765.077 115.408 772.222 115.408C776.459 115.408 780.6 115.914 784.647 116.926C788.694 117.938 792.52 119.392 796.124 121.289C799.791 123.186 803.206 125.525 806.367 128.308C809.529 131.026 812.311 134.093 814.714 137.508L766.152 196.028ZM779.431 142.629C778.229 142.187 777.028 141.902 775.826 141.776C774.688 141.649 773.487 141.586 772.222 141.586C768.681 141.586 765.33 142.25 762.168 143.578C759.07 144.843 756.351 146.676 754.012 149.079C751.735 151.482 749.933 154.391 748.605 157.805C747.277 161.156 746.614 164.95 746.614 169.187C746.614 170.135 746.645 171.21 746.708 172.411C746.835 173.613 746.993 174.846 747.183 176.111C747.436 177.312 747.72 178.482 748.036 179.62C748.352 180.758 748.763 181.77 749.269 182.655L779.431 142.629Z" fill="#EB1B3B"/>
<path d="M915.821 139.499L896.852 158.564C895.903 155.908 894.607 153.537 892.963 151.45C891.319 149.3 889.454 147.498 887.367 146.044C885.343 144.59 883.13 143.483 880.728 142.724C878.325 141.966 875.859 141.586 873.329 141.586C869.789 141.586 866.437 142.313 863.276 143.768C860.177 145.222 857.458 147.277 855.119 149.933C852.842 152.525 851.04 155.624 849.713 159.228C848.385 162.832 847.721 166.816 847.721 171.178C847.721 174.719 848.385 178.039 849.713 181.137C851.04 184.236 852.842 186.955 855.119 189.294C857.458 191.634 860.177 193.468 863.276 194.795C866.437 196.123 869.789 196.787 873.329 196.787C875.859 196.787 878.293 196.439 880.633 195.744C882.972 195.048 885.154 194.068 887.177 192.804C889.264 191.476 891.098 189.895 892.678 188.061C894.322 186.164 895.65 184.078 896.662 181.801L915.631 200.866C913.229 204.28 910.446 207.347 907.285 210.066C904.186 212.785 900.804 215.093 897.136 216.99C893.532 218.887 889.706 220.309 885.66 221.258C881.676 222.27 877.566 222.775 873.329 222.775C866.184 222.775 859.45 221.448 853.127 218.792C846.867 216.073 841.366 212.374 836.624 207.695C831.944 203.016 828.245 197.546 825.526 191.286C822.808 185.026 821.448 178.324 821.448 171.178C821.448 163.401 822.808 156.129 825.526 149.364C828.245 142.598 831.944 136.717 836.624 131.722C841.366 126.663 846.867 122.68 853.127 119.771C859.45 116.863 866.184 115.408 873.329 115.408C877.566 115.408 881.708 115.946 885.754 117.021C889.865 118.096 893.753 119.676 897.421 121.763C901.151 123.786 904.566 126.284 907.664 129.256C910.826 132.228 913.545 135.642 915.821 139.499Z" fill="#EB1B3B"/>
<path d="M954.424 220.878H928.531V78.8921H954.424V123.755C957.522 121.415 960.715 119.771 964.003 118.823C967.292 117.811 970.643 117.305 974.057 117.305C980.317 117.305 986.198 118.507 991.699 120.909C997.2 123.249 1001.97 126.505 1006.02 130.679C1010.13 134.789 1013.36 139.626 1015.7 145.19C1018.1 150.691 1019.3 156.572 1019.3 162.832V220.878H993.216V162.832H993.406C993.406 160.176 992.9 157.679 991.889 155.339C990.877 152.936 989.486 150.85 987.715 149.079C985.945 147.309 983.89 145.917 981.55 144.906C979.211 143.894 976.713 143.388 974.057 143.388C971.338 143.388 968.777 143.894 966.375 144.906C963.972 145.917 961.885 147.309 960.115 149.079C958.344 150.85 956.953 152.936 955.941 155.339C954.93 157.679 954.424 160.176 954.424 162.832V220.878Z" fill="#EB1B3B"/>
<path d="M625.135 279.769C625.135 283 624.711 286.116 623.862 289.119C623.047 292.089 621.872 294.879 620.338 297.49C618.804 300.068 616.976 302.434 614.855 304.588C612.734 306.709 610.368 308.537 607.757 310.071C605.146 311.605 602.339 312.796 599.337 313.644C596.367 314.46 593.267 314.868 590.036 314.868H568.888V244.669H590.036C593.267 244.669 596.367 245.093 599.337 245.942C602.339 246.758 605.146 247.933 607.757 249.466C610.368 251 612.734 252.844 614.855 254.998C616.976 257.12 618.804 259.486 620.338 262.096C621.872 264.675 623.047 267.465 623.862 270.467C624.711 273.437 625.135 276.538 625.135 279.769ZM611.086 279.769C611.086 276.864 610.531 274.139 609.421 271.593C608.344 269.048 606.843 266.829 604.917 264.936C603.025 263.01 600.789 261.493 598.211 260.383C595.665 259.273 592.94 258.719 590.036 258.719H583.035V300.819H590.036C592.94 300.819 595.665 300.28 598.211 299.203C600.789 298.094 603.025 296.592 604.917 294.699C606.843 292.774 608.344 290.538 609.421 287.993C610.531 285.415 611.086 282.673 611.086 279.769Z" fill="#211C1E"/>
<path d="M706.053 302.042C706.575 302.206 707.098 302.32 707.62 302.385C708.142 302.418 708.664 302.434 709.186 302.434C710.492 302.434 711.748 302.255 712.956 301.896C714.163 301.537 715.289 301.031 716.333 300.378C717.41 299.693 718.357 298.877 719.173 297.93C720.021 296.951 720.707 295.874 721.229 294.699L731.019 304.539C729.779 306.301 728.343 307.884 726.712 309.288C725.112 310.691 723.366 311.882 721.474 312.861C719.613 313.84 717.639 314.575 715.55 315.064C713.494 315.586 711.373 315.847 709.186 315.847C705.498 315.847 702.023 315.162 698.759 313.791C695.528 312.421 692.689 310.511 690.241 308.064C687.826 305.616 685.917 302.711 684.514 299.35C683.11 295.956 682.409 292.235 682.409 288.189C682.409 284.044 683.11 280.258 684.514 276.831C685.917 273.405 687.826 270.484 690.241 268.069C692.689 265.654 695.528 263.777 698.759 262.439C702.023 261.101 705.498 260.432 709.186 260.432C711.373 260.432 713.51 260.693 715.599 261.215C717.688 261.737 719.662 262.488 721.523 263.467C723.415 264.446 725.178 265.654 726.809 267.09C728.441 268.493 729.877 270.076 731.117 271.838L706.053 302.042ZM712.907 274.482C712.287 274.253 711.667 274.106 711.046 274.041C710.459 273.976 709.839 273.943 709.186 273.943C707.359 273.943 705.629 274.286 703.997 274.971C702.398 275.624 700.995 276.57 699.787 277.81C698.612 279.051 697.682 280.552 696.997 282.314C696.312 284.044 695.969 286.002 695.969 288.189C695.969 288.678 695.985 289.233 696.018 289.853C696.083 290.473 696.165 291.11 696.263 291.762C696.393 292.382 696.54 292.986 696.703 293.574C696.866 294.161 697.078 294.683 697.34 295.14L712.907 274.482Z" fill="#211C1E"/>
<path d="M840.379 314.868H837.149L831.96 307.672C830.687 308.814 829.332 309.891 827.896 310.903C826.493 311.882 825.008 312.747 823.442 313.498C821.875 314.216 820.26 314.787 818.595 315.211C816.963 315.635 815.299 315.847 813.602 315.847C809.914 315.847 806.438 315.227 803.175 313.987C799.944 312.747 797.105 310.952 794.657 308.602C792.242 306.22 790.333 303.315 788.929 299.888C787.526 296.462 786.824 292.562 786.824 288.189C786.824 284.109 787.526 280.372 788.929 276.978C790.333 273.552 792.242 270.614 794.657 268.167C797.105 265.719 799.944 263.826 803.175 262.488C806.438 261.117 809.914 260.432 813.602 260.432C815.299 260.432 816.98 260.644 818.644 261.068C820.309 261.493 821.924 262.08 823.491 262.831C825.057 263.581 826.542 264.463 827.945 265.474C829.381 266.486 830.719 267.579 831.96 268.754L837.149 262.537H840.379V314.868ZM826.917 288.189C826.917 286.361 826.558 284.599 825.84 282.902C825.155 281.172 824.209 279.654 823.001 278.349C821.794 277.011 820.374 275.95 818.742 275.167C817.143 274.351 815.43 273.943 813.602 273.943C811.774 273.943 810.045 274.253 808.413 274.873C806.814 275.493 805.41 276.407 804.203 277.615C803.028 278.822 802.098 280.323 801.413 282.118C800.727 283.881 800.385 285.904 800.385 288.189C800.385 290.473 800.727 292.513 801.413 294.308C802.098 296.07 803.028 297.555 804.203 298.763C805.41 299.97 806.814 300.884 808.413 301.504C810.045 302.124 811.774 302.434 813.602 302.434C815.43 302.434 817.143 302.042 818.742 301.259C820.374 300.443 821.794 299.383 823.001 298.077C824.209 296.739 825.155 295.222 825.84 293.525C826.558 291.795 826.917 290.016 826.917 288.189Z" fill="#211C1E"/>
<path d="M916.206 314.868H902.744V241.585H916.206V314.868Z" fill="#211C1E"/>
<path d="M1007.36 314.868H976.809V301.553H1007.36C1008.27 301.553 1009.05 301.227 1009.71 300.574C1010.36 299.921 1010.68 299.138 1010.68 298.224C1010.68 297.278 1010.36 296.658 1009.71 296.364C1009.05 296.07 1008.27 295.923 1007.36 295.923H993.453C991.136 295.923 988.966 295.483 986.942 294.602C984.919 293.72 983.156 292.529 981.655 291.028C980.154 289.494 978.963 287.715 978.082 285.692C977.233 283.669 976.809 281.498 976.809 279.181C976.809 276.864 977.233 274.694 978.082 272.67C978.963 270.647 980.154 268.885 981.655 267.383C983.156 265.882 984.919 264.707 986.942 263.859C988.966 262.978 991.136 262.537 993.453 262.537H1020.52V275.852H993.453C992.539 275.852 991.756 276.179 991.103 276.831C990.45 277.484 990.124 278.267 990.124 279.181C990.124 280.128 990.45 280.944 991.103 281.629C991.756 282.282 992.539 282.608 993.453 282.608H1007.36C1009.64 282.608 1011.79 283 1013.82 283.783C1015.84 284.533 1017.6 285.594 1019.1 286.965C1020.61 288.335 1021.8 289.984 1022.68 291.909C1023.56 293.835 1024 295.94 1024 298.224C1024 300.541 1023.56 302.711 1022.68 304.735C1021.8 306.726 1020.61 308.488 1019.1 310.022C1017.6 311.523 1015.84 312.714 1013.82 313.595C1011.79 314.444 1009.64 314.868 1007.36 314.868Z" fill="#211C1E"/>
</svg>
