<svg width="135" height="40" viewBox="0 0 135 40" fill="none" xmlns="http://www.w3.org/2000/svg">
<rect width="135" height="40" rx="20" fill="#4267B2"/>
<path d="M46.868 24H48.604V20.15H51.502V18.526H48.604V16.244H51.642V14.62H46.868V24ZM58.2883 24H59.8423V16.958H58.2883V17.854C57.7703 17.182 56.8183 16.72 55.9223 16.72C53.9343 16.72 52.4083 18.33 52.4083 20.444C52.4083 22.628 53.8643 24.238 55.8383 24.238C56.5103 24.238 57.0983 24.042 57.7283 23.608C58.0223 23.398 58.1763 23.272 58.2883 23.132V24ZM54.1023 20.514C54.1023 19.254 55.0123 18.274 56.1883 18.274C57.3783 18.274 58.2463 19.198 58.2463 20.486C58.2463 21.746 57.3643 22.698 56.1883 22.698C55.0263 22.698 54.1023 21.746 54.1023 20.514ZM66.3972 21.704C66.0052 22.348 65.4732 22.684 64.8432 22.684C63.6252 22.684 62.7292 21.746 62.7292 20.472C62.7292 19.198 63.5832 18.26 64.7732 18.26C65.5012 18.26 65.9772 18.554 66.3972 19.296H68.3012C68.0632 18.568 67.8252 18.19 67.3352 17.742C66.6352 17.084 65.7252 16.72 64.7732 16.72C62.7152 16.72 61.0352 18.4 61.0352 20.444C61.0352 22.53 62.7292 24.238 64.7872 24.238C65.6132 24.238 66.5092 23.93 67.1392 23.412C67.6992 22.964 68.0212 22.488 68.3012 21.704H66.3972ZM70.7429 21.228H76.2169C76.2869 20.836 76.3149 20.64 76.3149 20.374C76.3149 18.358 74.6629 16.678 72.6749 16.678C70.6169 16.678 68.9649 18.386 68.9649 20.486C68.9649 22.572 70.6169 24.238 72.6749 24.238C74.2009 24.238 75.6289 23.202 76.0629 21.774H74.2009C73.8229 22.39 73.3189 22.684 72.6329 22.684C71.7789 22.684 70.9669 22.068 70.7429 21.228ZM70.7009 19.87C70.9249 18.89 71.7229 18.232 72.6889 18.232C73.6689 18.232 74.4249 18.862 74.6629 19.87H70.7009ZM77.5044 24H79.0584V23.16C79.7444 23.902 80.4724 24.238 81.4384 24.238C83.4124 24.238 84.9384 22.6 84.9384 20.486C84.9384 18.4 83.3564 16.72 81.3964 16.72C80.5284 16.72 79.7444 17.028 79.1984 17.602V14.62H77.5044V24ZM79.1004 20.444C79.1004 19.226 80.0244 18.274 81.1864 18.274C82.3624 18.274 83.2444 19.212 83.2444 20.472C83.2444 21.746 82.3904 22.684 81.2284 22.684C80.0244 22.684 79.1004 21.718 79.1004 20.444ZM85.7677 20.416C85.7677 22.53 87.4337 24.238 89.4917 24.238C91.5917 24.238 93.2577 22.572 93.2577 20.472C93.2577 18.386 91.6057 16.72 89.5337 16.72C87.4897 16.72 85.7677 18.414 85.7677 20.416ZM87.4617 20.458C87.4617 19.268 88.4137 18.274 89.5197 18.274C90.6397 18.274 91.5637 19.282 91.5637 20.5C91.5637 21.732 90.6677 22.684 89.5197 22.684C88.3577 22.684 87.4617 21.718 87.4617 20.458ZM94.0938 20.416C94.0938 22.53 95.7598 24.238 97.8178 24.238C99.9178 24.238 101.584 22.572 101.584 20.472C101.584 18.386 99.9318 16.72 97.8598 16.72C95.8158 16.72 94.0938 18.414 94.0938 20.416ZM95.7878 20.458C95.7878 19.268 96.7398 18.274 97.8458 18.274C98.9658 18.274 99.8898 19.282 99.8898 20.5C99.8898 21.732 98.9938 22.684 97.8458 22.684C96.6838 22.684 95.7878 21.718 95.7878 20.458ZM102.77 24H104.464V20.71L106.872 24H109L106.144 20.402L108.678 16.958H106.732L104.464 20.276V14.62H102.77V24Z" fill="white"/>
<path d="M32.806 30V20.8898H35.9071L36.3717 17.3239H32.806V15.0528C32.806 14.0228 33.0948 13.3209 34.5861 13.3209H36.4762V10.1402C36.1474 10.0969 35.0191 10 33.7063 10C30.9653 10 29.0894 11.6564 29.0894 14.6996V17.3239H26V20.8898H29.0894V30H32.806Z" fill="white"/>
</svg>
