<svg width="24" height="24" viewBox="0 0 24 24" fill="none" xmlns="http://www.w3.org/2000/svg">
<path d="M21.2189 2H2.78129C2.34975 2 2 2.34973 2 2.78125C2 4.95685 2.93267 7.03389 4.55888 8.47935L7.98054 11.5204C8.57384 12.0478 8.91413 12.8055 8.91413 13.5995V21.2179C8.91413 21.8404 9.60996 22.2137 10.1286 21.8678L14.7381 18.7951C14.9554 18.6501 15.086 18.4063 15.086 18.1451V13.5995C15.086 12.8055 15.4263 12.0478 16.0196 11.5204L19.4411 8.47935C21.0673 7.03389 22 4.95685 22 2.78125C22 2.34973 21.6502 2 21.2189 2V2ZM18.403 7.31144L14.9815 10.3527C14.0549 11.1764 13.5234 12.3597 13.5234 13.5993V17.727L10.4766 19.7581V13.5995C10.4766 12.3597 9.94507 11.1764 9.0185 10.3527L5.59699 7.3116C4.50044 6.33671 3.80048 5.00095 3.61309 3.56235H20.3869C20.1995 5.00095 19.4997 6.33671 18.403 7.31144V7.31144Z" fill="white"/>
</svg>
