<svg width="135" height="40" viewBox="0 0 135 40" fill="none" xmlns="http://www.w3.org/2000/svg">
<rect x="0.5" y="0.5" width="134" height="39" rx="19.5" fill="white" stroke="#D6D6D6"/>
<path d="M63.34 19.226V20.85H67.274C66.742 21.9 65.692 22.558 64.502 22.558C62.64 22.558 61.184 21.144 61.184 19.338C61.184 18.526 61.548 17.602 62.094 17.028C62.668 16.412 63.522 16.062 64.404 16.062C65.426 16.062 66.364 16.552 66.924 17.364H68.996C68.394 15.698 66.434 14.438 64.446 14.438C61.702 14.438 59.448 16.636 59.448 19.31C59.448 22.012 61.702 24.182 64.488 24.182C66.084 24.182 67.638 23.398 68.562 22.124C69.178 21.27 69.458 20.36 69.458 19.226H63.34ZM70.3028 20.416C70.3028 22.53 71.9688 24.238 74.0268 24.238C76.1268 24.238 77.7928 22.572 77.7928 20.472C77.7928 18.386 76.1408 16.72 74.0688 16.72C72.0248 16.72 70.3028 18.414 70.3028 20.416ZM71.9968 20.458C71.9968 19.268 72.9488 18.274 74.0548 18.274C75.1748 18.274 76.0988 19.282 76.0988 20.5C76.0988 21.732 75.2028 22.684 74.0548 22.684C72.8928 22.684 71.9968 21.718 71.9968 20.458ZM78.629 20.416C78.629 22.53 80.295 24.238 82.353 24.238C84.453 24.238 86.119 22.572 86.119 20.472C86.119 18.386 84.467 16.72 82.395 16.72C80.351 16.72 78.629 18.414 78.629 20.416ZM80.323 20.458C80.323 19.268 81.275 18.274 82.381 18.274C83.501 18.274 84.425 19.282 84.425 20.5C84.425 21.732 83.529 22.684 82.381 22.684C81.219 22.684 80.323 21.718 80.323 20.458ZM87.0672 24.532C87.6272 25.96 88.9992 26.856 90.6092 26.856C91.7992 26.856 92.8772 26.352 93.6192 25.47C94.2072 24.756 94.4592 23.916 94.4592 22.712V16.958H92.9052V17.826C92.3172 17.07 91.5612 16.72 90.5532 16.72C88.5792 16.72 86.9552 18.386 86.9552 20.416C86.9552 22.516 88.5792 24.238 90.5672 24.238C91.5052 24.238 92.2472 23.874 92.8912 23.104C92.8212 24.42 91.9252 25.316 90.7072 25.316C90.0072 25.316 89.4332 25.05 88.9852 24.532H87.0672ZM88.6492 20.444C88.6492 19.226 89.5452 18.274 90.6932 18.274C91.8412 18.274 92.7652 19.268 92.7652 20.514C92.7652 21.704 91.8412 22.698 90.7492 22.698C89.5732 22.698 88.6492 21.704 88.6492 20.444ZM96.0005 24H97.6945V14.62H96.0005V24ZM100.669 21.228H106.143C106.213 20.836 106.241 20.64 106.241 20.374C106.241 18.358 104.589 16.678 102.601 16.678C100.543 16.678 98.8907 18.386 98.8907 20.486C98.8907 22.572 100.543 24.238 102.601 24.238C104.127 24.238 105.555 23.202 105.989 21.774H104.127C103.749 22.39 103.245 22.684 102.559 22.684C101.705 22.684 100.893 22.068 100.669 21.228ZM100.627 19.87C100.851 18.89 101.649 18.232 102.615 18.232C103.595 18.232 104.351 18.862 104.589 19.87H100.627Z" fill="#211C1E"/>
<path d="M33.6875 19.9999C33.6875 19.009 33.9605 18.0808 34.4348 17.286V13.9146H31.0634C29.7253 15.6524 29 17.7703 29 19.9999C29 22.2295 29.7253 24.3474 31.0634 26.0853H34.4348V22.7138C33.9605 21.919 33.6875 20.9908 33.6875 19.9999V19.9999Z" fill="#FBBD00"/>
<path d="M39 25.3126L36.6562 27.6563L39 30.0001C41.2296 30.0001 43.3475 29.2747 45.0854 27.9367V24.5688H41.7175C40.9158 25.0449 39.9836 25.3126 39 25.3126V25.3126Z" fill="#0F9D58"/>
<path d="M34.4349 22.7139L31.0635 26.0853C31.3284 26.4293 31.6169 26.7588 31.929 27.071C33.8178 28.9597 36.329 29.9999 39.0001 29.9999V25.3124C37.0616 25.3124 35.3627 24.2687 34.4349 22.7139Z" fill="#31AA52"/>
<path d="M49 20C49 19.3916 48.9449 18.7821 48.8363 18.1884L48.7483 17.708H39V22.3955H43.7442C43.2835 23.312 42.5752 24.0596 41.7175 24.5689L45.0853 27.9367C45.4294 27.6718 45.7589 27.3833 46.0711 27.0711C47.9598 25.1823 49 22.6711 49 20V20Z" fill="#3C79E6"/>
<path d="M42.7565 16.2435L43.1708 16.6578L46.4854 13.3432L46.0711 12.9289C44.1823 11.0402 41.6711 10 39 10L36.6562 12.3437L39 14.6875C40.419 14.6875 41.7531 15.2401 42.7565 16.2435Z" fill="#CF2D48"/>
<path d="M38.9999 14.6875V10C36.3288 10 33.8176 11.0402 31.9288 12.9289C31.6166 13.2411 31.3282 13.5705 31.0632 13.9146L34.4346 17.2861C35.3625 15.7312 37.0614 14.6875 38.9999 14.6875V14.6875Z" fill="#EB4132"/>
</svg>
