<svg width="24" height="24" viewBox="0 0 24 24" fill="none" xmlns="http://www.w3.org/2000/svg">
<path d="M12.125 21C11.9961 21 11.8679 20.9685 11.754 20.9093C3.26721 16.483 2 11.7069 2 9.254C2 7.60813 2.53038 6.06068 3.49304 4.89577C4.50396 3.67319 5.91118 3 7.45484 3C9.78913 3 11.3549 4.22297 12.125 5.01687C12.8951 4.22297 14.4609 3 16.7952 3C18.3218 3 19.7199 3.66319 20.7324 4.86732C21.7109 6.03108 22.25 7.58891 22.25 9.254C22.25 11.7069 20.9828 16.4826 12.496 20.9089C12.3821 20.9685 12.2539 21 12.125 21Z" fill="#EB1B3B"/>
</svg>
