<svg width="32" height="32" viewBox="0 0 32 32" fill="none" xmlns="http://www.w3.org/2000/svg">
<path d="M22.8126 16.3217V14.0781C22.8126 10.8052 20.637 8.0312 17.6563 7.12516V6.10938C17.6563 4.94627 16.71 4 15.5469 4C14.3838 4 13.4376 4.94627 13.4376 6.10938V7.12516C10.4568 8.0312 8.2813 10.8052 8.2813 14.0781V16.3217C8.2813 19.1966 7.18546 21.9227 5.19566 23.9977C5.00066 24.2011 4.94587 24.5011 5.0564 24.7602C5.16693 25.0194 5.42146 25.1875 5.70318 25.1875H12.102C12.4287 26.7903 13.8492 28 15.5469 28C17.2447 28 18.6651 26.7903 18.9918 25.1875H25.3907C25.6724 25.1875 25.9269 25.0194 26.0374 24.7602C26.1479 24.5011 26.0931 24.2011 25.8982 23.9977C23.9084 21.9227 22.8126 19.1965 22.8126 16.3217V16.3217ZM14.8438 6.10938C14.8438 5.72167 15.1592 5.40625 15.5469 5.40625C15.9346 5.40625 16.2501 5.72167 16.2501 6.10938V6.84663C16.0186 6.82431 15.7841 6.8125 15.5469 6.8125C15.3097 6.8125 15.0752 6.82431 14.8438 6.84663V6.10938ZM15.5469 26.5938C14.6303 26.5938 13.8487 26.0059 13.5585 25.1875H17.5354C17.2451 26.0059 16.4636 26.5938 15.5469 26.5938V26.5938ZM7.21865 23.7812C8.81995 21.6348 9.68755 19.0371 9.68755 16.3217V14.0781C9.68755 10.8473 12.3161 8.21875 15.5469 8.21875C18.7778 8.21875 21.4063 10.8473 21.4063 14.0781V16.3217C21.4063 19.0371 22.2739 21.6348 23.8753 23.7812H7.21865Z" fill="white"/>
</svg>
