<svg width="104" height="34" viewBox="0 0 104 34" fill="none" xmlns="http://www.w3.org/2000/svg">
<g clip-path="url(#clip0)">
<g filter="url(#filter0_d)">
<path d="M43.7539 31.9309V31.9538C43.7637 31.9456 43.7752 31.9407 43.785 31.9309H43.7539Z" fill="white"/>
<path fill-rule="evenodd" clip-rule="evenodd" d="M49.9142 10.2297C50.1789 10.2215 51.7013 10.228 52.3622 11.3474C52.839 12.1558 52.6828 13.2113 51.9019 14.4812L51.8871 14.5041L48.7255 19.3023C48.5513 19.5657 48.2635 19.7081 47.9693 19.7081C47.7983 19.7081 47.6273 19.6607 47.4744 19.5608C47.0584 19.2892 46.9417 18.7328 47.2146 18.3171L50.3679 13.5305C50.8645 12.722 50.853 12.3391 50.8053 12.2589C50.7198 12.1149 50.2364 12.0151 49.9668 12.0265H49.929H14.3958L19.1653 26.0576V26.0609C19.1675 26.0675 19.17 26.075 19.1727 26.0832C19.2557 26.3347 19.5856 27.3352 21.8894 27.2128V29.2074C18.4359 29.2053 17.5491 26.9313 17.4373 26.5813L10.0687 4.90625C9.81382 4.23366 9.52447 3.98329 9.37486 3.89329C9.30252 3.85237 9.25156 3.83765 9.23347 3.83438H8.19278C7.87054 4.49715 7.1899 4.95372 6.40239 4.95372H2.98603C1.88944 4.95372 1 4.06837 1 2.97685C1 1.88532 1.88944 1 2.98603 1H6.40239C7.15702 1 7.81464 1.42057 8.15003 2.03752H9.24169H9.24662C9.57708 2.03752 10.9696 2.16844 11.7653 4.29258L11.7752 4.31876L13.7842 10.2313C13.7892 10.2313 13.7945 10.2309 13.7999 10.2305C13.8052 10.2301 13.8105 10.2297 13.8155 10.2297H49.9142Z" fill="white"/>
<path fill-rule="evenodd" clip-rule="evenodd" d="M48.5116 21.477C49.3468 22.2592 49.7709 23.3196 49.7709 24.6272L49.7726 26.8937C49.7726 27.0917 49.7348 27.8216 49.1281 28.4336C48.556 29.0113 47.6749 29.2496 46.5487 29.2136H46.0555V27.2135L46.071 27.2138H46.3796H46.887C47.4692 27.2138 47.6015 27.211 47.6905 27.1763C47.9515 27.0745 47.9489 26.8344 47.9483 26.779C47.9483 26.7767 47.9483 26.7748 47.9483 26.7731L47.9466 26.4642L47.9625 24.6255C47.9625 23.8204 47.7356 23.2182 47.2703 22.7812C46.3003 21.8697 44.5905 21.9434 44.5741 21.945L44.5215 21.9466H30.713C30.2148 21.9466 29.8104 21.5441 29.8104 21.0482C29.8104 20.5524 30.2148 20.1498 30.713 20.1498H40.2387L35.581 15.8639H29.7397L25.2859 20.6211C24.3455 21.7699 22.7245 21.9221 22.5403 21.9352L22.5058 21.9385H19.6106C19.1125 21.9385 18.708 21.5359 18.708 21.04C18.708 20.5442 19.1125 20.1416 19.6106 20.1416H22.4302C22.736 20.1105 23.5268 19.9387 23.895 19.4756L23.9427 19.4216L28.551 14.5007C28.8075 14.2274 29.1708 14.0703 29.5473 14.0703H35.7504C36.0973 14.0703 36.4294 14.1996 36.6842 14.4336L42.8988 20.1531H44.5017C44.8108 20.1416 47.0434 20.0991 48.5116 21.477Z" fill="white"/>
<rect x="31.0989" y="27.2134" width="5.75006" height="1.994" fill="white"/>
<path d="M31.0999 27.1448L30.3634 26.9857C30.2995 26.7901 30.2196 26.5993 30.1269 26.4164L30.5343 25.7851C30.6078 25.6721 30.5918 25.5243 30.496 25.4288L29.3489 24.287C29.253 24.1916 29.1044 24.1757 28.991 24.2488L28.3567 24.6544C28.173 24.5605 27.9813 24.4826 27.7848 24.419L27.625 23.6859C27.5962 23.5555 27.4796 23.4617 27.3454 23.4617H25.7222C25.588 23.4617 25.4714 23.5555 25.4426 23.6859L25.2828 24.419C25.0863 24.4826 24.8946 24.5621 24.7109 24.6544L24.0766 24.2488C23.9632 24.1757 23.8146 24.1916 23.7187 24.287L22.5716 25.4288C22.4757 25.5243 22.4598 25.6721 22.5333 25.7851L22.9407 26.4164C22.8464 26.5993 22.7681 26.7901 22.7042 26.9857L21.9677 27.1448C21.8367 27.1734 21.7424 27.2895 21.7424 27.423V29.0388C21.7424 29.1723 21.8367 29.2884 21.9677 29.3171L22.7042 29.4761C22.7681 29.6717 22.848 29.8625 22.9407 30.0454L22.5333 30.6767C22.4598 30.7897 22.4757 30.9375 22.5716 31.033L23.7187 32.1748C23.8146 32.2702 23.9632 32.2861 24.0766 32.213L24.7109 31.8074C24.8946 31.9013 25.0863 31.9792 25.2828 32.0428L25.4426 32.7759C25.4714 32.9063 25.588 33.0001 25.7222 33.0001H27.3454C27.4796 33.0001 27.5962 32.9063 27.625 32.7759L27.7848 32.0428C27.9813 31.9792 28.173 31.8997 28.3567 31.8074L28.991 32.213C29.1044 32.2861 29.253 32.2702 29.3489 32.1748L30.496 31.033C30.5918 30.9375 30.6078 30.7897 30.5343 30.6767L30.1269 30.0454C30.2212 29.8625 30.2995 29.6717 30.3634 29.4761L31.0999 29.3171C31.2309 29.2884 31.3252 29.1723 31.3252 29.0388V27.423C31.3252 27.2895 31.2309 27.1734 31.0999 27.1448ZM28.2513 28.2309C28.2513 29.1739 27.4796 29.942 26.5322 29.942C25.5848 29.942 24.8131 29.1739 24.8131 28.2309C24.8131 27.2879 25.5848 26.5198 26.5322 26.5198C27.4796 26.5198 28.2513 27.2879 28.2513 28.2309Z" fill="white"/>
<path d="M45.9917 27.1448L45.2552 26.9857C45.1913 26.7901 45.1114 26.5993 45.0188 26.4164L45.4262 25.7851C45.4997 25.6721 45.4837 25.5243 45.3878 25.4288L44.2407 24.287C44.1448 24.1916 43.9963 24.1757 43.8828 24.2488L43.2486 24.6544C43.0648 24.5605 42.8731 24.4826 42.6766 24.419L42.5168 23.6859C42.4881 23.5555 42.3714 23.4617 42.2372 23.4617H40.614C40.4798 23.4617 40.3632 23.5555 40.3344 23.6859L40.1747 24.419C39.9782 24.4826 39.7864 24.5621 39.6027 24.6544L38.9684 24.2488C38.855 24.1757 38.7064 24.1916 38.6106 24.287L37.4635 25.4288C37.3676 25.5243 37.3516 25.6721 37.4251 25.7851L37.8325 26.4164C37.7383 26.5993 37.66 26.7901 37.5961 26.9857L36.8595 27.1448C36.7285 27.1734 36.6343 27.2895 36.6343 27.423V29.0388C36.6343 29.1723 36.7285 29.2884 36.8595 29.3171L37.5961 29.4761C37.66 29.6717 37.7399 29.8625 37.8325 30.0454L37.4251 30.6767C37.3516 30.7897 37.3676 30.9375 37.4635 31.033L38.6106 32.1748C38.7064 32.2702 38.855 32.2861 38.9684 32.213L39.6027 31.8074C39.7864 31.9013 39.9782 31.9792 40.1747 32.0428L40.3344 32.7759C40.3632 32.9063 40.4798 33.0001 40.614 33.0001H42.2372C42.3714 33.0001 42.4881 32.9063 42.5168 32.7759L42.6766 32.0428C42.8731 31.9792 43.0648 31.8997 43.2486 31.8074L43.8828 32.213C43.9963 32.2861 44.1448 32.2702 44.2407 32.1748L45.3878 31.033C45.4837 30.9375 45.4997 30.7897 45.4262 30.6767L45.0188 30.0454C45.113 29.8625 45.1913 29.6717 45.2552 29.4761L45.9917 29.3171C46.1227 29.2884 46.217 29.1723 46.217 29.0388V27.423C46.217 27.2895 46.1227 27.1734 45.9917 27.1448ZM43.1431 28.2309C43.1431 29.1739 42.3715 29.942 41.424 29.942C40.4766 29.942 39.705 29.1739 39.705 28.2309C39.705 27.2879 40.4766 26.5198 41.424 26.5198C42.3715 26.5198 43.1431 27.2879 43.1431 28.2309Z" fill="white"/>
<path d="M70.7218 22.8363H68.0401V13.2347C68.0401 13.0472 68.0026 12.8721 67.9276 12.7096C67.8588 12.5471 67.7619 12.4064 67.6369 12.2877C67.5181 12.1626 67.3775 12.0657 67.215 11.997C67.0524 11.9282 66.8774 11.8938 66.6899 11.8938C66.5023 11.8938 66.3273 11.9282 66.1648 11.997C66.0023 12.0657 65.8585 12.1626 65.7335 12.2877C65.6147 12.4064 65.5209 12.5471 65.4522 12.7096C65.3834 12.8721 65.349 13.0472 65.349 13.2347V22.8363H62.6579V13.2347C62.6579 13.0472 62.6236 12.8721 62.5548 12.7096C62.486 12.5471 62.3891 12.4064 62.2641 12.2877C62.1454 12.1626 62.0047 12.0657 61.8422 11.997C61.6797 11.9282 61.5046 11.8938 61.3171 11.8938C61.1296 11.8938 60.9545 11.9282 60.792 11.997C60.6295 12.0657 60.4857 12.1626 60.3607 12.2877C60.2419 12.4064 60.1481 12.5471 60.0794 12.7096C60.0106 12.8721 59.9762 13.0472 59.9762 13.2347V22.8363H57.2852V13.2347C57.2852 12.6783 57.3883 12.1564 57.5946 11.6688C57.8071 11.175 58.0947 10.7468 58.4572 10.3842C58.826 10.0154 59.2542 9.72784 59.7418 9.52156C60.2357 9.30902 60.7607 9.20275 61.3171 9.20275C61.8172 9.20275 62.2985 9.29339 62.7611 9.47468C63.2237 9.6497 63.6394 9.906 64.0082 10.2436C64.377 9.906 64.7896 9.6497 65.2459 9.47468C65.7085 9.29339 66.1898 9.20275 66.6899 9.20275C67.2462 9.20275 67.7682 9.30902 68.2558 9.52156C68.7496 9.72784 69.1778 10.0154 69.5404 10.3842C69.9092 10.7468 70.1967 11.175 70.403 11.6688C70.6155 12.1564 70.7218 12.6783 70.7218 13.2347V22.8363Z" fill="white"/>
<path d="M76.7416 20.3797C76.8416 20.4109 76.9416 20.4328 77.0416 20.4453C77.1416 20.4515 77.2417 20.4547 77.3417 20.4547C77.5917 20.4547 77.8324 20.4203 78.0637 20.3515C78.295 20.2828 78.5106 20.1859 78.7107 20.0608C78.9169 19.9296 79.0982 19.7733 79.2545 19.592C79.417 19.4045 79.5483 19.1982 79.6483 18.9732L81.5236 20.8579C81.2861 21.1954 81.0111 21.4986 80.6985 21.7674C80.3922 22.0362 80.0578 22.2643 79.6952 22.4519C79.3389 22.6394 78.9607 22.7801 78.5606 22.8738C78.1668 22.9738 77.7605 23.0238 77.3417 23.0238C76.6353 23.0238 75.9696 22.8926 75.3445 22.63C74.7256 22.3675 74.1818 22.0018 73.7129 21.533C73.2504 21.0641 72.8847 20.5078 72.6159 19.8639C72.3471 19.2138 72.2127 18.5012 72.2127 17.7261C72.2127 16.9322 72.3471 16.2071 72.6159 15.5507C72.8847 14.8943 73.2504 14.3349 73.7129 13.8723C74.1818 13.4097 74.7256 13.0503 75.3445 12.794C75.9696 12.5377 76.6353 12.4095 77.3417 12.4095C77.7605 12.4095 78.1699 12.4596 78.57 12.5596C78.9701 12.6596 79.3483 12.8034 79.7046 12.9909C80.0671 13.1784 80.4047 13.4097 80.7173 13.6848C81.0298 13.9536 81.3049 14.2567 81.5424 14.5943L76.7416 20.3797ZM78.0543 15.1006C77.9355 15.0569 77.8168 15.0287 77.698 15.0162C77.5855 15.0037 77.4667 14.9975 77.3417 14.9975C76.9916 14.9975 76.6603 15.0631 76.3478 15.1944C76.0415 15.3194 75.7727 15.5007 75.5414 15.7382C75.3163 15.9758 75.1382 16.2633 75.0069 16.6009C74.8756 16.9322 74.81 17.3073 74.81 17.7261C74.81 17.8198 74.8131 17.9261 74.8194 18.0449C74.8319 18.1637 74.8475 18.2855 74.8663 18.4106C74.8913 18.5293 74.9194 18.645 74.9507 18.7575C74.9819 18.87 75.0225 18.97 75.0725 19.0576L78.0543 15.1006Z" fill="white"/>
<path d="M91.5378 14.7912L89.6625 16.6759C89.5688 16.4134 89.4406 16.1789 89.2781 15.9727C89.1156 15.7601 88.9311 15.582 88.7249 15.4382C88.5248 15.2944 88.306 15.185 88.0685 15.11C87.831 15.035 87.5872 14.9975 87.3371 14.9975C86.9871 14.9975 86.6558 15.0694 86.3432 15.2131C86.0369 15.3569 85.7681 15.5601 85.5368 15.8226C85.3118 16.0789 85.1336 16.3852 85.0024 16.7415C84.8711 17.0978 84.8054 17.4917 84.8054 17.923C84.8054 18.273 84.8711 18.6012 85.0024 18.9075C85.1336 19.2138 85.3118 19.4826 85.5368 19.7139C85.7681 19.9452 86.0369 20.1265 86.3432 20.2578C86.6558 20.389 86.9871 20.4547 87.3371 20.4547C87.5872 20.4547 87.8278 20.4203 88.0591 20.3515C88.2904 20.2828 88.5061 20.1859 88.7061 20.0608C88.9124 19.9296 89.0937 19.7733 89.25 19.592C89.4125 19.4045 89.5438 19.1982 89.6438 18.9732L91.5191 20.8579C91.2815 21.1954 91.0065 21.4986 90.6939 21.7674C90.3876 22.0362 90.0532 22.2643 89.6907 22.4519C89.3343 22.6394 88.9562 22.7801 88.5561 22.8738C88.1623 22.9738 87.7559 23.0238 87.3371 23.0238C86.6308 23.0238 85.965 22.8926 85.3399 22.63C84.7211 22.3612 84.1772 21.9956 83.7084 21.533C83.2458 21.0704 82.8801 20.5297 82.6113 19.9108C82.3425 19.292 82.2081 18.6294 82.2081 17.923C82.2081 17.1541 82.3425 16.4352 82.6113 15.7664C82.8801 15.0975 83.2458 14.5162 83.7084 14.0223C84.1772 13.5222 84.7211 13.1284 85.3399 12.8409C85.965 12.5533 86.6308 12.4095 87.3371 12.4095C87.7559 12.4095 88.1654 12.4627 88.5655 12.569C88.9718 12.6752 89.3562 12.8315 89.7188 13.0378C90.0876 13.2378 90.4252 13.4847 90.7315 13.7785C91.044 14.0723 91.3128 14.4099 91.5378 14.7912Z" fill="white"/>
<path d="M95.3541 22.8363H92.7943V8.79956H95.3541V13.2347C95.6604 13.0034 95.9761 12.8409 96.3011 12.7471C96.6262 12.6471 96.9575 12.5971 97.2951 12.5971C97.9139 12.5971 98.4953 12.7159 99.0391 12.9534C99.583 13.1847 100.055 13.5066 100.455 13.9192C100.861 14.3255 101.18 14.8037 101.411 15.3538C101.649 15.8976 101.768 16.479 101.768 17.0978V22.8363H99.1891V17.0978H99.2079C99.2079 16.8353 99.1579 16.5884 99.0579 16.3571C98.9578 16.1196 98.8203 15.9133 98.6453 15.7382C98.4703 15.5632 98.2671 15.4257 98.0358 15.3257C97.8045 15.2257 97.5576 15.1756 97.2951 15.1756C97.0263 15.1756 96.7731 15.2257 96.5356 15.3257C96.298 15.4257 96.0917 15.5632 95.9167 15.7382C95.7417 15.9133 95.6042 16.1196 95.5041 16.3571C95.4041 16.5884 95.3541 16.8353 95.3541 17.0978V22.8363Z" fill="white"/>
<path d="M62.8009 28.6576C62.8009 28.9771 62.7589 29.2852 62.675 29.582C62.5944 29.8756 62.4782 30.1514 62.3266 30.4096C62.1749 30.6644 61.9943 30.8984 61.7846 31.1113C61.5748 31.321 61.3409 31.5017 61.0828 31.6533C60.8247 31.805 60.5472 31.9227 60.2504 32.0066C59.9568 32.0873 59.6503 32.1276 59.3309 32.1276H57.2402V25.1877H59.3309C59.6503 25.1877 59.9568 25.2296 60.2504 25.3135C60.5472 25.3942 60.8247 25.5103 61.0828 25.662C61.3409 25.8136 61.5748 25.9959 61.7846 26.2088C61.9943 26.4186 62.1749 26.6525 62.3266 26.9106C62.4782 27.1655 62.5944 27.4413 62.675 27.7381C62.7589 28.0317 62.8009 28.3382 62.8009 28.6576ZM61.4119 28.6576C61.4119 28.3705 61.3571 28.1011 61.2474 27.8494C61.1409 27.5978 60.9925 27.3784 60.8021 27.1913C60.615 27.0009 60.394 26.8509 60.1391 26.7412C59.8875 26.6315 59.6181 26.5766 59.3309 26.5766H58.6389V30.7386H59.3309C59.6181 30.7386 59.8875 30.6854 60.1391 30.5789C60.394 30.4692 60.615 30.3208 60.8021 30.1337C60.9925 29.9433 61.1409 29.7223 61.2474 29.4707C61.3571 29.2158 61.4119 28.9448 61.4119 28.6576Z" fill="white"/>
<path d="M70.8004 30.8596C70.852 30.8758 70.9037 30.8871 70.9553 30.8935C71.0069 30.8967 71.0585 30.8984 71.1101 30.8984C71.2392 30.8984 71.3634 30.8806 71.4828 30.8451C71.6022 30.8096 71.7135 30.7596 71.8167 30.6951C71.9232 30.6273 72.0167 30.5467 72.0974 30.4531C72.1813 30.3563 72.249 30.2499 72.3007 30.1337L73.2686 31.1065C73.146 31.2807 73.004 31.4372 72.8427 31.5759C72.6846 31.7146 72.512 31.8324 72.3249 31.9292C72.141 32.026 71.9458 32.0986 71.7393 32.147C71.536 32.1986 71.3263 32.2244 71.1101 32.2244C70.7456 32.2244 70.402 32.1566 70.0793 32.0211C69.7599 31.8856 69.4792 31.6969 69.2372 31.4549C68.9985 31.2129 68.8097 30.9258 68.671 30.5935C68.5323 30.2579 68.4629 29.8901 68.4629 29.49C68.4629 29.0803 68.5323 28.706 68.671 28.3673C68.8097 28.0285 68.9985 27.7397 69.2372 27.501C69.4792 27.2622 69.7599 27.0767 70.0793 26.9445C70.402 26.8122 70.7456 26.746 71.1101 26.746C71.3263 26.746 71.5376 26.7718 71.7441 26.8235C71.9506 26.8751 72.1458 26.9493 72.3297 27.0461C72.5168 27.1429 72.6911 27.2622 72.8524 27.4042C73.0137 27.5429 73.1556 27.6994 73.2782 27.8736L70.8004 30.8596ZM71.4779 28.135C71.4166 28.1124 71.3553 28.0979 71.294 28.0914C71.236 28.085 71.1747 28.0817 71.1101 28.0817C70.9295 28.0817 70.7585 28.1156 70.5971 28.1834C70.4391 28.2479 70.3003 28.3415 70.1809 28.4641C70.0648 28.5867 69.9728 28.7351 69.9051 28.9093C69.8373 29.0803 69.8035 29.2739 69.8035 29.49C69.8035 29.5384 69.8051 29.5933 69.8083 29.6546C69.8148 29.7159 69.8228 29.7788 69.8325 29.8433C69.8454 29.9046 69.8599 29.9643 69.8761 30.0224C69.8922 30.0805 69.9132 30.1321 69.939 30.1773L71.4779 28.135Z" fill="white"/>
<path d="M84.0799 32.1276H83.7605L83.2475 31.4162C83.1217 31.5291 82.9878 31.6356 82.8458 31.7356C82.7071 31.8324 82.5603 31.9179 82.4054 31.9921C82.2505 32.0631 82.0908 32.1195 81.9263 32.1615C81.765 32.2034 81.6004 32.2244 81.4327 32.2244C81.0681 32.2244 80.7245 32.1631 80.4018 32.0405C80.0824 31.9179 79.8017 31.7404 79.5598 31.5081C79.321 31.2726 79.1323 30.9855 78.9935 30.6467C78.8548 30.3079 78.7854 29.9224 78.7854 29.49C78.7854 29.0868 78.8548 28.7173 78.9935 28.3818C79.1323 28.043 79.321 27.7527 79.5598 27.5107C79.8017 27.2687 80.0824 27.0816 80.4018 26.9493C80.7245 26.8138 81.0681 26.746 81.4327 26.746C81.6004 26.746 81.7666 26.767 81.9311 26.8089C82.0957 26.8509 82.2554 26.909 82.4102 26.9832C82.5651 27.0574 82.7119 27.1445 82.8506 27.2445C82.9926 27.3445 83.1249 27.4526 83.2475 27.5688L83.7605 26.9541H84.0799V32.1276ZM82.749 29.49C82.749 29.3094 82.7135 29.1351 82.6425 28.9674C82.5748 28.7964 82.4812 28.6464 82.3619 28.5173C82.2425 28.385 82.1021 28.2802 81.9408 28.2027C81.7827 28.1221 81.6133 28.0817 81.4327 28.0817C81.252 28.0817 81.081 28.1124 80.9197 28.1737C80.7616 28.235 80.6228 28.3253 80.5035 28.4447C80.3873 28.5641 80.2954 28.7125 80.2276 28.8899C80.1599 29.0642 80.126 29.2642 80.126 29.49C80.126 29.7159 80.1599 29.9175 80.2276 30.095C80.2954 30.2692 80.3873 30.416 80.5035 30.5354C80.6228 30.6548 80.7616 30.7451 80.9197 30.8064C81.081 30.8677 81.252 30.8984 81.4327 30.8984C81.6133 30.8984 81.7827 30.8596 81.9408 30.7822C82.1021 30.7015 82.2425 30.5967 82.3619 30.4676C82.4812 30.3354 82.5748 30.1853 82.6425 30.0176C82.7135 29.8466 82.749 29.6707 82.749 29.49Z" fill="white"/>
<path d="M91.5761 32.1276H90.2453V24.8828H91.5761V32.1276Z" fill="white"/>
<path d="M100.587 32.1276H97.5673V30.8112H100.587C100.677 30.8112 100.755 30.779 100.819 30.7144C100.884 30.6499 100.916 30.5725 100.916 30.4822C100.916 30.3886 100.884 30.3273 100.819 30.2982C100.755 30.2692 100.677 30.2547 100.587 30.2547H99.2127C98.9836 30.2547 98.7691 30.2111 98.5691 30.124C98.369 30.0369 98.1948 29.9192 98.0464 29.7707C97.898 29.6191 97.7802 29.4433 97.6931 29.2432C97.6092 29.0432 97.5673 28.8286 97.5673 28.5996C97.5673 28.3705 97.6092 28.1559 97.6931 27.9559C97.7802 27.7559 97.898 27.5817 98.0464 27.4332C98.1948 27.2848 98.369 27.1687 98.5691 27.0848C98.7691 26.9977 98.9836 26.9541 99.2127 26.9541H101.889V28.2705H99.2127C99.1224 28.2705 99.0449 28.3027 98.9804 28.3673C98.9159 28.4318 98.8836 28.5092 98.8836 28.5996C98.8836 28.6931 98.9159 28.7738 98.9804 28.8415C99.0449 28.9061 99.1224 28.9383 99.2127 28.9383H100.587C100.813 28.9383 101.026 28.9771 101.226 29.0545C101.426 29.1287 101.6 29.2336 101.749 29.3691C101.897 29.5046 102.015 29.6675 102.102 29.8579C102.189 30.0482 102.233 30.2563 102.233 30.4822C102.233 30.7112 102.189 30.9258 102.102 31.1258C102.015 31.3226 101.897 31.4968 101.749 31.6485C101.6 31.7969 101.426 31.9147 101.226 32.0018C101.026 32.0856 100.813 32.1276 100.587 32.1276Z" fill="white"/>
</g>
</g>
<defs>
<filter id="filter0_d" x="-9" y="-9" width="121.233" height="52.0001" filterUnits="userSpaceOnUse" color-interpolation-filters="sRGB">
<feFlood flood-opacity="0" result="BackgroundImageFix"/>
<feColorMatrix in="SourceAlpha" type="matrix" values="0 0 0 0 0 0 0 0 0 0 0 0 0 0 0 0 0 0 127 0"/>
<feOffset/>
<feGaussianBlur stdDeviation="5"/>
<feColorMatrix type="matrix" values="0 0 0 0 0 0 0 0 0 0 0 0 0 0 0 0 0 0 0.06 0"/>
<feBlend mode="normal" in2="BackgroundImageFix" result="effect1_dropShadow"/>
<feBlend mode="normal" in="SourceGraphic" in2="effect1_dropShadow" result="shape"/>
</filter>
<clipPath id="clip0">
<rect width="104" height="34" fill="white"/>
</clipPath>
</defs>
</svg>
