<svg width="24" height="24" viewBox="0 0 24 24" fill="none" xmlns="http://www.w3.org/2000/svg">
<path d="M11.754 20.9093C11.8679 20.9685 11.9961 21 12.125 21C12.2539 21 12.3821 20.9685 12.496 20.9089L4.07104 5.3737C3.22964 6.39196 2.75 7.76608 2.75 9.254C2.75 10.344 3.02916 12.0033 4.31732 13.9238C5.6094 15.8502 7.94072 18.0746 12.1008 20.2443L11.754 20.9093ZM11.754 20.9093L12.0999 20.2438M11.754 20.9093L12.0999 20.2438M12.125 6.09409L11.5866 5.53905C10.8928 4.82367 9.50871 3.75 7.45484 3.75C6.1418 3.75 4.9441 4.31793 4.07118 5.37353L12.125 6.09409ZM12.125 6.09409L12.6634 5.53905M12.125 6.09409L12.6634 5.53905M12.6634 5.53905C13.3572 4.82367 14.7413 3.75 16.7952 3.75C18.0927 3.75 19.2833 4.30933 20.1584 5.34998C21.0122 6.36546 21.5 7.74755 21.5 9.254C21.5 10.344 21.2208 12.0032 19.9327 13.9236C18.6406 15.8499 16.3093 18.0742 12.1492 20.2439L12.1483 20.2443M12.6634 5.53905L12.1483 20.2443M12.1483 20.2443C12.1418 20.2478 12.1329 20.25 12.125 20.25C12.117 20.25 12.1075 20.2477 12.0999 20.2438M12.1483 20.2443L12.0999 20.2438" stroke="#E0E0E0" stroke-width="1.5"/>
</svg>
