<svg width="225" height="75" viewBox="0 0 225 75" fill="none" xmlns="http://www.w3.org/2000/svg">
<g clip-path="url(#clip0)">
<g filter="url(#filter0_d)">
<path d="M95.5249 69.6619V69.712C95.5464 69.6941 95.5714 69.6833 95.5929 69.6619H95.5249Z" fill="white"/>
<path fill-rule="evenodd" clip-rule="evenodd" d="M109.001 22.1901C109.58 22.1722 112.91 22.1865 114.356 24.6351C115.399 26.4035 115.057 28.7125 113.349 31.4904L113.316 31.5406L106.4 42.0365C106.019 42.6129 105.39 42.9243 104.746 42.9243C104.372 42.9243 103.998 42.8205 103.664 42.6022C102.754 42.0079 102.498 40.7908 103.095 39.8815L109.993 29.4106C111.079 27.6422 111.054 26.8045 110.95 26.6291C110.763 26.314 109.706 26.0957 109.116 26.1207H109.033H31.3036L41.7368 56.814V56.8211C41.7418 56.8355 41.7471 56.8519 41.7531 56.87C41.9346 57.4202 42.6562 59.6086 47.6957 59.341V63.7041C40.1414 63.6994 38.2014 58.7252 37.957 57.9595L21.8378 10.545C21.2804 9.07369 20.6474 8.526 20.3202 8.32911C20.1619 8.23962 20.0504 8.20741 20.0109 8.20025H17.7343C17.0294 9.65007 15.5405 10.6488 13.8178 10.6488H6.34448C3.94567 10.6488 2 8.71212 2 6.32439C2 3.93666 3.94567 2 6.34448 2H13.8178C15.4686 2 16.9071 2.92 17.6408 4.26958H20.0288H20.0396C20.7625 4.26958 23.8087 4.55598 25.5493 9.20256L25.5709 9.25985L29.9657 22.1937C29.9765 22.1937 29.9882 22.1928 29.9999 22.1919C30.0116 22.191 30.0233 22.1901 30.0341 22.1901H109.001Z" fill="white"/>
<path fill-rule="evenodd" clip-rule="evenodd" d="M105.933 46.794C107.76 48.5051 108.688 50.8249 108.688 53.6851L108.691 58.6431C108.691 59.0763 108.609 60.6729 107.282 62.0117C106.03 63.2754 104.103 63.7968 101.639 63.718H100.56V59.3428L100.594 59.3433H101.269H102.379C103.653 59.3433 103.942 59.3373 104.137 59.2614C104.708 59.0388 104.702 58.5134 104.701 58.3922C104.701 58.3873 104.701 58.383 104.701 58.3795L104.697 57.7036L104.732 53.6815C104.732 51.9203 104.235 50.6029 103.218 49.6471C101.096 47.6531 97.3555 47.8142 97.3195 47.8178L97.2044 47.8214H66.9981C65.9084 47.8214 65.0237 46.9408 65.0237 45.8561C65.0237 44.7714 65.9084 43.8908 66.9981 43.8908H87.8358L77.6471 34.5152H64.869L55.1264 44.9218C53.0692 47.4348 49.5231 47.7677 49.1203 47.7964L49.0448 47.8035H42.7115C41.6218 47.8035 40.7371 46.9229 40.7371 45.8382C40.7371 44.7535 41.6218 43.8729 42.7115 43.8729H48.8794C49.5483 43.8048 51.2782 43.429 52.0838 42.4159L52.1881 42.2978L62.2688 31.5333C62.8299 30.9355 63.6247 30.5918 64.4482 30.5918H78.0175C78.7764 30.5918 79.5029 30.8746 80.0603 31.3865L93.6548 43.8979H97.1613C97.8374 43.8729 102.721 43.7798 105.933 46.794Z" fill="white"/>
<rect x="67.8416" y="59.3423" width="12.5783" height="4.3619" fill="white"/>
<path d="M67.8443 59.1913L66.2332 58.8434C66.0934 58.4156 65.9187 57.9981 65.716 57.598L66.6072 56.217C66.7679 55.97 66.733 55.6465 66.5233 55.4377L64.014 52.94C63.8043 52.7312 63.4792 52.6965 63.2311 52.8565L61.8436 53.7436C61.4417 53.5383 61.0223 53.3679 60.5924 53.2287L60.2429 51.625C60.18 51.3398 59.9249 51.1345 59.6313 51.1345H56.0806C55.787 51.1345 55.5319 51.3398 55.4689 51.625L55.1195 53.2287C54.6896 53.3679 54.2702 53.5418 53.8683 53.7436L52.4808 52.8565C52.2327 52.6965 51.9076 52.7312 51.6979 52.94L49.1886 55.4377C48.9789 55.6465 48.9439 55.97 49.1047 56.217L49.9959 57.598C49.7897 57.9981 49.6185 58.4156 49.4787 58.8434L47.8675 59.1913C47.5809 59.2539 47.3748 59.5079 47.3748 59.8001V63.3345C47.3748 63.6267 47.5809 63.8807 47.8675 63.9433L49.4787 64.2911C49.6185 64.719 49.7932 65.1365 49.9959 65.5366L49.1047 66.9176C48.9439 67.1646 48.9789 67.4881 49.1886 67.6969L51.6979 70.1946C51.9076 70.4033 52.2327 70.4381 52.4808 70.2781L53.8683 69.391C54.2702 69.5963 54.6896 69.7667 55.1195 69.9059L55.4689 71.5096C55.5319 71.7948 55.787 72.0001 56.0806 72.0001H59.6313C59.9249 72.0001 60.18 71.7948 60.2429 71.5096L60.5924 69.9059C61.0223 69.7667 61.4417 69.5928 61.8436 69.391L63.2311 70.2781C63.4792 70.4381 63.8043 70.4033 64.014 70.1946L66.5233 67.6969C66.733 67.4881 66.7679 67.1646 66.6072 66.9176L65.716 65.5366C65.9222 65.1365 66.0934 64.719 66.2332 64.2911L67.8443 63.9433C68.1309 63.8807 68.3371 63.6267 68.3371 63.3345V59.8001C68.3371 59.5079 68.1309 59.2539 67.8443 59.1913ZM61.613 61.5673C61.613 63.6302 59.9249 65.3104 57.8524 65.3104C55.78 65.3104 54.0919 63.6302 54.0919 61.5673C54.0919 59.5044 55.78 57.8242 57.8524 57.8242C59.9249 57.8242 61.613 59.5044 61.613 61.5673Z" fill="white"/>
<path d="M100.42 59.1913L98.8089 58.8434C98.6691 58.4156 98.4944 57.9981 98.2916 57.598L99.1829 56.217C99.3436 55.97 99.3087 55.6465 99.099 55.4377L96.5896 52.94C96.3799 52.7312 96.0549 52.6965 95.8068 52.8565L94.4193 53.7436C94.0174 53.5383 93.598 53.3679 93.1681 53.2287L92.8186 51.625C92.7557 51.3398 92.5006 51.1345 92.207 51.1345H88.6562C88.3627 51.1345 88.1075 51.3398 88.0446 51.625L87.6951 53.2287C87.2653 53.3679 86.8459 53.5418 86.4439 53.7436L85.0565 52.8565C84.8083 52.6965 84.4833 52.7312 84.2736 52.94L81.7643 55.4377C81.5546 55.6465 81.5196 55.97 81.6804 56.217L82.5716 57.598C82.3654 57.9981 82.1942 58.4156 82.0544 58.8434L80.4432 59.1913C80.1566 59.2539 79.9504 59.5079 79.9504 59.8001V63.3345C79.9504 63.6267 80.1566 63.8807 80.4432 63.9433L82.0544 64.2911C82.1942 64.719 82.3689 65.1365 82.5716 65.5366L81.6804 66.9176C81.5196 67.1646 81.5546 67.4881 81.7643 67.6969L84.2736 70.1946C84.4833 70.4033 84.8083 70.4381 85.0565 70.2781L86.4439 69.391C86.8459 69.5963 87.2653 69.7667 87.6951 69.9059L88.0446 71.5096C88.1075 71.7948 88.3627 72.0001 88.6562 72.0001H92.207C92.5006 72.0001 92.7557 71.7948 92.8186 71.5096L93.1681 69.9059C93.598 69.7667 94.0174 69.5928 94.4193 69.391L95.8068 70.2781C96.0549 70.4381 96.3799 70.4033 96.5896 70.1946L99.099 67.6969C99.3087 67.4881 99.3436 67.1646 99.1829 66.9176L98.2916 65.5366C98.4978 65.1365 98.6691 64.719 98.8089 64.2911L100.42 63.9433C100.707 63.8807 100.913 63.6267 100.913 63.3345V59.8001C100.913 59.5079 100.707 59.2539 100.42 59.1913ZM94.1886 61.5673C94.1886 63.6302 92.5006 65.3104 90.4281 65.3104C88.3557 65.3104 86.6676 63.6302 86.6676 61.5673C86.6676 59.5044 88.3557 57.8242 90.4281 57.8242C92.5006 57.8242 94.1886 59.5044 94.1886 61.5673Z" fill="white"/>
<path d="M154.518 49.7664H148.652V28.7627C148.652 28.3525 148.57 27.9696 148.405 27.6141C148.255 27.2585 148.043 26.9509 147.77 26.6911C147.51 26.4176 147.202 26.2056 146.847 26.0552C146.491 25.9048 146.108 25.8296 145.698 25.8296C145.288 25.8296 144.905 25.9048 144.549 26.0552C144.194 26.2056 143.879 26.4176 143.606 26.6911C143.346 26.9509 143.141 27.2585 142.99 27.6141C142.84 27.9696 142.765 28.3525 142.765 28.7627V49.7664H136.878V28.7627C136.878 28.3525 136.803 27.9696 136.652 27.6141C136.502 27.2585 136.29 26.9509 136.017 26.6911C135.757 26.4176 135.449 26.2056 135.094 26.0552C134.738 25.9048 134.355 25.8296 133.945 25.8296C133.535 25.8296 133.152 25.9048 132.796 26.0552C132.441 26.2056 132.126 26.4176 131.853 26.6911C131.593 26.9509 131.388 27.2585 131.237 27.6141C131.087 27.9696 131.012 28.3525 131.012 28.7627V49.7664H125.125V28.7627C125.125 27.5457 125.351 26.4039 125.802 25.3373C126.267 24.257 126.896 23.3203 127.689 22.5272C128.496 21.7204 129.432 21.0914 130.499 20.6402C131.579 20.1752 132.728 19.9428 133.945 19.9428C135.039 19.9428 136.092 20.1411 137.104 20.5376C138.116 20.9205 139.025 21.4811 139.832 22.2196C140.638 21.4811 141.541 20.9205 142.539 20.5376C143.551 20.1411 144.604 19.9428 145.698 19.9428C146.915 19.9428 148.057 20.1752 149.123 20.6402C150.204 21.0914 151.14 21.7204 151.933 22.5272C152.74 23.3203 153.369 24.257 153.821 25.3373C154.285 26.4039 154.518 27.5457 154.518 28.7627V49.7664Z" fill="white"/>
<path d="M167.686 44.3924C167.905 44.4608 168.124 44.5087 168.343 44.536C168.561 44.5497 168.78 44.5565 168.999 44.5565C169.546 44.5565 170.072 44.4813 170.578 44.3309C171.084 44.1805 171.556 43.9685 171.994 43.695C172.445 43.4079 172.841 43.066 173.183 42.6695C173.539 42.2592 173.826 41.808 174.045 41.3157L178.147 45.4385C177.627 46.1769 177.026 46.8401 176.342 47.4281C175.672 48.0161 174.94 48.5152 174.147 48.9255C173.368 49.3357 172.541 49.6434 171.665 49.8485C170.804 50.0673 169.915 50.1767 168.999 50.1767C167.454 50.1767 165.997 49.8895 164.63 49.3152C163.276 48.7409 162.087 47.9409 161.061 46.9153C160.049 45.8898 159.249 44.6728 158.661 43.2643C158.073 41.8422 157.779 40.2833 157.779 38.5877C157.779 36.8511 158.073 35.2648 158.661 33.829C159.249 32.3932 160.049 31.1694 161.061 30.1575C162.087 29.1456 163.276 28.3593 164.63 27.7987C165.997 27.238 167.454 26.9577 168.999 26.9577C169.915 26.9577 170.811 27.0671 171.686 27.2859C172.561 27.5047 173.388 27.8192 174.168 28.2294C174.961 28.6396 175.699 29.1456 176.383 29.7473C177.067 30.3353 177.669 30.9985 178.188 31.7369L167.686 44.3924ZM170.558 32.8445C170.298 32.7488 170.038 32.6872 169.778 32.6599C169.532 32.6325 169.272 32.6189 168.999 32.6189C168.233 32.6189 167.508 32.7624 166.825 33.0496C166.155 33.3231 165.567 33.7196 165.061 34.2393C164.569 34.7589 164.179 35.3879 163.892 36.1263C163.604 36.8511 163.461 37.6715 163.461 38.5877C163.461 38.7928 163.468 39.0253 163.481 39.2851C163.509 39.5449 163.543 39.8115 163.584 40.085C163.639 40.3448 163.7 40.5978 163.769 40.844C163.837 41.0901 163.926 41.3089 164.035 41.5003L170.558 32.8445Z" fill="white"/>
<path d="M200.053 32.1676L195.951 36.2904C195.746 35.7161 195.466 35.2033 195.11 34.7521C194.755 34.2871 194.351 33.8974 193.9 33.5829C193.462 33.2684 192.984 33.0291 192.464 32.865C191.944 32.7009 191.411 32.6189 190.864 32.6189C190.098 32.6189 189.374 32.7761 188.69 33.0906C188.02 33.4051 187.432 33.8495 186.926 34.4239C186.434 34.9845 186.044 35.6546 185.757 36.434C185.47 37.2134 185.326 38.0749 185.326 39.0184C185.326 39.7842 185.47 40.5021 185.757 41.1721C186.044 41.8422 186.434 42.4302 186.926 42.9361C187.432 43.4421 188.02 43.8386 188.69 44.1258C189.374 44.4129 190.098 44.5565 190.864 44.5565C191.411 44.5565 191.938 44.4813 192.444 44.3309C192.95 44.1805 193.421 43.9685 193.859 43.695C194.31 43.4079 194.707 43.066 195.049 42.6695C195.404 42.2592 195.691 41.808 195.91 41.3157L200.012 45.4385C199.493 46.1769 198.891 46.8401 198.207 47.4281C197.537 48.0161 196.806 48.5152 196.013 48.9255C195.233 49.3357 194.406 49.6434 193.531 49.8485C192.669 50.0673 191.78 50.1767 190.864 50.1767C189.319 50.1767 187.863 49.8895 186.495 49.3152C185.142 48.7272 183.952 47.9272 182.926 46.9153C181.914 45.9034 181.114 44.7206 180.526 43.3669C179.938 42.0131 179.644 40.5636 179.644 39.0184C179.644 37.3365 179.938 35.7639 180.526 34.3008C181.114 32.8376 181.914 31.5659 182.926 30.4857C183.952 29.3917 185.142 28.5302 186.495 27.9012C187.863 27.2722 189.319 26.9577 190.864 26.9577C191.78 26.9577 192.676 27.0739 193.551 27.3064C194.44 27.5389 195.281 27.8807 196.074 28.332C196.881 28.7695 197.619 29.3097 198.289 29.9524C198.973 30.5951 199.561 31.3335 200.053 32.1676Z" fill="white"/>
<path d="M208.401 49.7664H202.802V19.0608H208.401V28.7627C209.072 28.2568 209.762 27.9012 210.473 27.6961C211.184 27.4773 211.909 27.3679 212.647 27.3679C214.001 27.3679 215.273 27.6277 216.462 28.1474C217.652 28.6533 218.685 29.3575 219.56 30.26C220.449 31.1489 221.146 32.195 221.652 33.3983C222.172 34.588 222.431 35.8597 222.431 37.2134V49.7664H216.791V37.2134H216.832C216.832 36.6391 216.722 36.099 216.504 35.593C216.285 35.0734 215.984 34.6221 215.601 34.2393C215.218 33.8564 214.774 33.5555 214.268 33.3368C213.762 33.118 213.222 33.0086 212.647 33.0086C212.059 33.0086 211.506 33.118 210.986 33.3368C210.466 33.5555 210.015 33.8564 209.632 34.2393C209.249 34.6221 208.948 35.0734 208.73 35.593C208.511 36.099 208.401 36.6391 208.401 37.2134V49.7664Z" fill="white"/>
<path d="M137.19 62.5021C137.19 63.2009 137.099 63.8749 136.915 64.5242C136.739 65.1664 136.485 65.7699 136.153 66.3345C135.821 66.892 135.426 67.4037 134.967 67.8695C134.508 68.3283 133.997 68.7235 133.432 69.0552C132.867 69.3869 132.261 69.6445 131.611 69.828C130.969 70.0045 130.298 70.0927 129.6 70.0927H125.026V54.9116H129.6C130.298 54.9116 130.969 55.0033 131.611 55.1868C132.261 55.3633 132.867 55.6174 133.432 55.9491C133.997 56.2808 134.508 56.6795 134.967 57.1453C135.426 57.6041 135.821 58.1158 136.153 58.6804C136.485 59.238 136.739 59.8414 136.915 60.4907C137.099 61.1329 137.19 61.8034 137.19 62.5021ZM134.152 62.5021C134.152 61.874 134.032 61.2847 133.792 60.7342C133.559 60.1837 133.234 59.7038 132.818 59.2944C132.409 58.878 131.925 58.5498 131.368 58.3099C130.817 58.0699 130.228 57.9499 129.6 57.9499H128.086V67.0544H129.6C130.228 67.0544 130.817 66.9379 131.368 66.705C131.925 66.465 132.409 66.1404 132.818 65.731C133.234 65.3146 133.559 64.8312 133.792 64.2807C134.032 63.7231 134.152 63.1303 134.152 62.5021Z" fill="white"/>
<path d="M154.689 67.319C154.802 67.3543 154.915 67.379 155.028 67.3931C155.141 67.4002 155.254 67.4037 155.367 67.4037C155.649 67.4037 155.921 67.3649 156.182 67.2873C156.443 67.2096 156.687 67.1002 156.913 66.9591C157.146 66.8109 157.35 66.6344 157.527 66.4298C157.71 66.218 157.858 65.9851 157.971 65.731L160.089 67.8589C159.82 68.2401 159.51 68.5824 159.157 68.8858C158.811 69.1893 158.434 69.4469 158.024 69.6587C157.622 69.8704 157.195 70.0292 156.743 70.135C156.299 70.248 155.84 70.3044 155.367 70.3044C154.569 70.3044 153.818 70.1562 153.112 69.8598C152.413 69.5634 151.799 69.1505 151.27 68.6212C150.748 68.0918 150.335 67.4637 150.031 66.7368C149.728 66.0028 149.576 65.1982 149.576 64.323C149.576 63.4267 149.728 62.608 150.031 61.8669C150.335 61.1259 150.748 60.4942 151.27 59.972C151.799 59.4497 152.413 59.0439 153.112 58.7545C153.818 58.4651 154.569 58.3205 155.367 58.3205C155.84 58.3205 156.302 58.3769 156.754 58.4898C157.206 58.6028 157.633 58.7651 158.035 58.9768C158.444 59.1886 158.825 59.4497 159.178 59.7602C159.531 60.0637 159.842 60.406 160.11 60.7871L154.689 67.319ZM156.172 61.3588C156.037 61.3094 155.903 61.2776 155.769 61.2635C155.642 61.2494 155.508 61.2423 155.367 61.2423C154.972 61.2423 154.598 61.3164 154.245 61.4647C153.899 61.6058 153.596 61.8105 153.334 62.0787C153.08 62.3469 152.879 62.6715 152.731 63.0526C152.583 63.4267 152.509 63.8502 152.509 64.323C152.509 64.4289 152.512 64.5489 152.519 64.683C152.533 64.8171 152.551 64.9547 152.572 65.0958C152.6 65.2299 152.632 65.3605 152.667 65.4876C152.703 65.6146 152.749 65.7275 152.805 65.8263L156.172 61.3588Z" fill="white"/>
<path d="M183.739 70.0927H183.04L181.918 68.5365C181.642 68.7835 181.35 69.0164 181.039 69.2352C180.736 69.4469 180.414 69.634 180.076 69.7963C179.737 69.9515 179.387 70.0751 179.028 70.1668C178.675 70.2586 178.315 70.3044 177.948 70.3044C177.15 70.3044 176.399 70.1703 175.693 69.9021C174.994 69.634 174.38 69.2458 173.851 68.7376C173.328 68.2224 172.916 67.5943 172.612 66.8532C172.309 66.1122 172.157 65.2688 172.157 64.323C172.157 63.4408 172.309 62.6327 172.612 61.8987C172.916 61.1577 173.328 60.5225 173.851 59.9931C174.38 59.4638 174.994 59.0545 175.693 58.7651C176.399 58.4687 177.15 58.3205 177.948 58.3205C178.315 58.3205 178.678 58.3663 179.038 58.4581C179.398 58.5498 179.747 58.6769 180.086 58.8392C180.425 59.0015 180.746 59.1921 181.05 59.4109C181.36 59.6297 181.649 59.8661 181.918 60.1202L183.04 58.7757H183.739V70.0927ZM180.827 64.323C180.827 63.9278 180.75 63.5467 180.594 63.1797C180.446 62.8056 180.241 62.4774 179.98 62.1951C179.719 61.9058 179.412 61.6764 179.059 61.507C178.713 61.3306 178.343 61.2423 177.948 61.2423C177.552 61.2423 177.178 61.3094 176.826 61.4435C176.48 61.5776 176.176 61.7752 175.915 62.0363C175.661 62.2975 175.46 62.6221 175.312 63.0103C175.163 63.3914 175.089 63.829 175.089 64.323C175.089 64.8171 175.163 65.2582 175.312 65.6463C175.46 66.0275 175.661 66.3486 175.915 66.6097C176.176 66.8709 176.48 67.0685 176.826 67.2026C177.178 67.3367 177.552 67.4037 177.948 67.4037C178.343 67.4037 178.713 67.319 179.059 67.1496C179.412 66.9732 179.719 66.7438 179.98 66.4615C180.241 66.1721 180.446 65.844 180.594 65.477C180.75 65.1029 180.827 64.7183 180.827 64.323Z" fill="white"/>
<path d="M200.137 70.0927H197.225V54.2446H200.137V70.0927Z" fill="white"/>
<path d="M219.848 70.0927H213.242V67.2132H219.848C220.046 67.2132 220.215 67.1426 220.357 67.0014C220.498 66.8603 220.568 66.6909 220.568 66.4933C220.568 66.2886 220.498 66.1545 220.357 66.091C220.215 66.0275 220.046 65.9957 219.848 65.9957H216.842C216.341 65.9957 215.871 65.9004 215.434 65.7099C214.996 65.5193 214.615 65.2617 214.291 64.9371C213.966 64.6053 213.708 64.2207 213.518 63.7831C213.334 63.3455 213.242 62.8762 213.242 62.3751C213.242 61.874 213.334 61.4047 213.518 60.9671C213.708 60.5295 213.966 60.1484 214.291 59.8237C214.615 59.4991 214.996 59.245 215.434 59.0615C215.871 58.871 216.341 58.7757 216.842 58.7757H222.696V61.6552H216.842C216.644 61.6552 216.475 61.7258 216.334 61.8669C216.193 62.0081 216.122 62.1775 216.122 62.3751C216.122 62.5798 216.193 62.7562 216.334 62.9044C216.475 63.0456 216.644 63.1162 216.842 63.1162H219.848C220.342 63.1162 220.808 63.2009 221.246 63.3702C221.683 63.5326 222.065 63.7619 222.389 64.0584C222.714 64.3548 222.971 64.7112 223.162 65.1276C223.353 65.544 223.448 65.9992 223.448 66.4933C223.448 66.9944 223.353 67.4637 223.162 67.9013C222.971 68.3318 222.714 68.7129 222.389 69.0446C222.065 69.3693 221.683 69.6269 221.246 69.8175C220.808 70.001 220.342 70.0927 219.848 70.0927Z" fill="white"/>
</g>
</g>
<defs>
<filter id="filter0_d" x="-8" y="-8" width="241.448" height="90.0001" filterUnits="userSpaceOnUse" color-interpolation-filters="sRGB">
<feFlood flood-opacity="0" result="BackgroundImageFix"/>
<feColorMatrix in="SourceAlpha" type="matrix" values="0 0 0 0 0 0 0 0 0 0 0 0 0 0 0 0 0 0 127 0"/>
<feOffset/>
<feGaussianBlur stdDeviation="5"/>
<feColorMatrix type="matrix" values="0 0 0 0 0 0 0 0 0 0 0 0 0 0 0 0 0 0 0.06 0"/>
<feBlend mode="normal" in2="BackgroundImageFix" result="effect1_dropShadow"/>
<feBlend mode="normal" in="SourceGraphic" in2="effect1_dropShadow" result="shape"/>
</filter>
<clipPath id="clip0">
<rect width="225" height="75" fill="white"/>
</clipPath>
</defs>
</svg>
