<svg width="32" height="32" viewBox="0 0 32 32" fill="none" xmlns="http://www.w3.org/2000/svg">
<path d="M26.4977 25.1702V25.1844C26.5038 25.1793 26.5109 25.1763 26.5169 25.1702H26.4977Z" fill="white"/>
<path fill-rule="evenodd" clip-rule="evenodd" d="M30.3156 11.7203C30.4796 11.7152 31.4232 11.7193 31.8328 12.413C32.1283 12.914 32.0315 13.5682 31.5475 14.3553L31.5383 14.3695L29.5789 17.3432C29.4709 17.5065 29.2926 17.5948 29.1102 17.5948C29.0042 17.5948 28.8982 17.5653 28.8035 17.5035C28.5457 17.3351 28.4733 16.9903 28.6425 16.7327L30.5968 13.766C30.9045 13.265 30.8974 13.0276 30.8679 12.9779C30.8149 12.8887 30.5153 12.8268 30.3482 12.8339H30.3248H8.30234L11.2583 21.53V21.532C11.2597 21.5361 11.2612 21.5407 11.2629 21.5459C11.3143 21.7017 11.5188 22.3218 12.9466 22.2459V23.4821C10.8063 23.4808 10.2566 22.0715 10.1874 21.8545L5.62049 8.42098C5.46255 8.00413 5.28322 7.84896 5.1905 7.79317C5.14566 7.76782 5.11408 7.75869 5.10287 7.75666H4.45787C4.25816 8.16743 3.83632 8.4504 3.34824 8.4504H1.23088C0.55125 8.4504 0 7.90169 0 7.22519C0 6.5487 0.55125 6 1.23088 6H3.34824C3.81594 6 4.22352 6.26066 4.43138 6.64302H5.10796H5.11101C5.31582 6.64302 6.17887 6.72416 6.67204 8.04064L6.67815 8.05687L7.9233 11.7213C7.92636 11.7213 7.92967 11.7211 7.93298 11.7208C7.93629 11.7205 7.9396 11.7203 7.94266 11.7203H30.3156Z" fill="#EB1B3B"/>
<path fill-rule="evenodd" clip-rule="evenodd" d="M29.4464 18.691C29.964 19.1758 30.2269 19.833 30.2269 20.6434L30.2279 22.0481C30.2279 22.1709 30.2045 22.6232 29.8285 23.0025C29.4739 23.3606 28.9278 23.5083 28.2298 23.486H27.9242V22.2464L27.9337 22.2465H28.125H28.4395C28.8004 22.2465 28.8823 22.2448 28.9375 22.2233C29.0992 22.1602 29.0976 22.0114 29.0973 21.977C29.0972 21.9756 29.0972 21.9744 29.0972 21.9734L29.0962 21.782L29.106 20.6424C29.106 20.1434 28.9654 19.7702 28.6771 19.4994C28.0759 18.9344 27.0162 18.9801 27.006 18.9811L26.9734 18.9821H18.4153C18.1066 18.9821 17.8559 18.7326 17.8559 18.4253C17.8559 18.118 18.1066 17.8685 18.4153 17.8685H24.3191L21.4324 15.2122H17.8121L15.0518 18.1606C14.4689 18.8726 13.4643 18.9669 13.3501 18.975L13.3287 18.977H11.5344C11.2256 18.977 10.975 18.7275 10.975 18.4202C10.975 18.1129 11.2256 17.8634 11.5344 17.8634H13.2819C13.4714 17.8441 13.9615 17.7376 14.1897 17.4506L14.2193 17.4171L17.0754 14.3673C17.2343 14.198 17.4595 14.1006 17.6929 14.1006H21.5373C21.7523 14.1006 21.9582 14.1807 22.1161 14.3257L25.9677 17.8705H26.9612C27.1527 17.8634 28.5365 17.837 29.4464 18.691Z" fill="#EB1B3B"/>
<rect x="18.6543" y="22.2463" width="3.56372" height="1.23582" fill="#EB1B3B"/>
<path d="M18.6551 22.2036L18.1986 22.105C18.159 21.9838 18.1095 21.8655 18.0521 21.7521L18.3046 21.3609C18.3501 21.2909 18.3402 21.1992 18.2808 21.1401L17.5698 20.4324C17.5104 20.3733 17.4183 20.3634 17.348 20.4088L16.9549 20.6601C16.8411 20.602 16.7222 20.5537 16.6004 20.5142L16.5014 20.0599C16.4836 19.9791 16.4113 19.9209 16.3281 19.9209H15.3221C15.239 19.9209 15.1667 19.9791 15.1489 20.0599L15.0498 20.5142C14.928 20.5537 14.8092 20.6029 14.6953 20.6601L14.3022 20.4088C14.2319 20.3634 14.1399 20.3733 14.0804 20.4324L13.3695 21.1401C13.3101 21.1992 13.3002 21.2909 13.3457 21.3609L13.5982 21.7521C13.5398 21.8655 13.4913 21.9838 13.4517 22.105L12.9952 22.2036C12.914 22.2213 12.8556 22.2933 12.8556 22.376V23.3774C12.8556 23.4602 12.914 23.5322 12.9952 23.5499L13.4517 23.6485C13.4913 23.7697 13.5408 23.888 13.5982 24.0013L13.3457 24.3926C13.3002 24.4626 13.3101 24.5542 13.3695 24.6134L14.0804 25.321C14.1399 25.3802 14.2319 25.39 14.3022 25.3447L14.6953 25.0934C14.8092 25.1515 14.928 25.1998 15.0498 25.2392L15.1489 25.6936C15.1667 25.7744 15.239 25.8326 15.3221 25.8326H16.3281C16.4113 25.8326 16.4836 25.7744 16.5014 25.6936L16.6004 25.2392C16.7222 25.1998 16.8411 25.1505 16.9549 25.0934L17.348 25.3447C17.4183 25.39 17.5104 25.3802 17.5698 25.321L18.2808 24.6134C18.3402 24.5542 18.3501 24.4626 18.3046 24.3926L18.0521 24.0013C18.1105 23.888 18.159 23.7697 18.1986 23.6485L18.6551 23.5499C18.7363 23.5322 18.7947 23.4602 18.7947 23.3774V22.376C18.7947 22.2933 18.7363 22.2213 18.6551 22.2036ZM16.8896 22.8767C16.8896 23.4612 16.4113 23.9372 15.8241 23.9372C15.237 23.9372 14.7587 23.4612 14.7587 22.8767C14.7587 22.2923 15.237 21.8162 15.8241 21.8162C16.4113 21.8162 16.8896 22.2923 16.8896 22.8767Z" fill="#211C1E"/>
<path d="M27.8846 22.2036L27.4281 22.105C27.3885 21.9838 27.339 21.8655 27.2815 21.7521L27.534 21.3609C27.5796 21.2909 27.5697 21.1992 27.5103 21.1401L26.7993 20.4324C26.7399 20.3733 26.6478 20.3634 26.5775 20.4088L26.1844 20.6601C26.0706 20.602 25.9517 20.5537 25.8299 20.5142L25.7309 20.0599C25.7131 19.9791 25.6408 19.9209 25.5576 19.9209H24.5516C24.4684 19.9209 24.3962 19.9791 24.3783 20.0599L24.2793 20.5142C24.1575 20.5537 24.0387 20.6029 23.9248 20.6601L23.5317 20.4088C23.4614 20.3634 23.3693 20.3733 23.3099 20.4324L22.599 21.1401C22.5396 21.1992 22.5297 21.2909 22.5752 21.3609L22.8277 21.7521C22.7693 21.8655 22.7208 21.9838 22.6812 22.105L22.2247 22.2036C22.1435 22.2213 22.0851 22.2933 22.0851 22.376V23.3774C22.0851 23.4602 22.1435 23.5322 22.2247 23.5499L22.6812 23.6485C22.7208 23.7697 22.7703 23.888 22.8277 24.0013L22.5752 24.3926C22.5297 24.4626 22.5396 24.5542 22.599 24.6134L23.3099 25.321C23.3693 25.3802 23.4614 25.39 23.5317 25.3447L23.9248 25.0934C24.0387 25.1515 24.1575 25.1998 24.2793 25.2392L24.3783 25.6936C24.3962 25.7744 24.4684 25.8326 24.5516 25.8326H25.5576C25.6408 25.8326 25.7131 25.7744 25.7309 25.6936L25.8299 25.2392C25.9517 25.1998 26.0706 25.1505 26.1844 25.0934L26.5775 25.3447C26.6478 25.39 26.7399 25.3802 26.7993 25.321L27.5103 24.6134C27.5697 24.5542 27.5796 24.4626 27.534 24.3926L27.2815 24.0013C27.34 23.888 27.3885 23.7697 27.4281 23.6485L27.8846 23.5499C27.9658 23.5322 28.0242 23.4602 28.0242 23.3774V22.376C28.0242 22.2933 27.9658 22.2213 27.8846 22.2036ZM26.1191 22.8767C26.1191 23.4612 25.6408 23.9372 25.0536 23.9372C24.4665 23.9372 23.9882 23.4612 23.9882 22.8767C23.9882 22.2923 24.4665 21.8162 25.0536 21.8162C25.6408 21.8162 26.1191 22.2923 26.1191 22.8767Z" fill="#211C1E"/>
</svg>
